<?xml version="1.0" encoding="utf-8"?>
<!-- Generator: Adobe Illustrator 17.0.0, SVG Export Plug-In . SVG Version: 6.00 Build 0)  -->
<!DOCTYPE svg PUBLIC "-//W3C//DTD SVG 1.1//EN" "http://www.w3.org/Graphics/SVG/1.1/DTD/svg11.dtd">
<svg version="1.1" xmlns="http://www.w3.org/2000/svg" xmlns:xlink="http://www.w3.org/1999/xlink" x="0px" y="0px" width="450px"
	 height="352px" viewBox="0 0 450 352" enable-background="new 0 0 450 352" xml:space="preserve">
<g id="Layer_2" opacity="0.4">
</g>
<g id="Layer_1">
	<g>
		<path d="M177.337,132.36c0.737,1.299,1.407,2.469,2.023,3.545c3.197,5.584,4.959,8.66,7.149,14.137
			c2.38,5.949,5.329,12.689,5.863,13.906c0.027,8.653,1.683,14.402,2.14,15.828c-1.043,3.018-1.966,5.277-2.711,7.1
			c-1.289,3.15-2.067,5.052-2.067,7.414c0,3.225,2.379,6.329,3.254,7.362c-0.042,0.855,0.107,2.624,1.479,5.197
			c1.693,3.173,7.72,10.44,8.592,11.485c0.579,1.366,4.887,11.505,6.356,14.234c0.305,0.565,0.524,1.233,0.701,1.943
			c0.001,0.003,0.003,0.012,0.003,0.013c0,0,0.001,0.001,0.001,0.002c0.187,0.75,0.326,1.549,0.462,2.336
			c0.354,2.054,0.688,3.994,1.864,5.17c0.669,0.669,1.582,1.016,2.662,1.016c0.174,0,0.352-0.009,0.534-0.027
			c2.012-0.199,4.323-1.54,5.376-3.119c1.493-2.238,1.506-6.275,1.043-12.063c-0.072-0.905-0.097-1.714-0.091-2.438
			c1.299,3.613,3.164,5.457,5.553,5.457c0,0,0,0,0.001,0c0.988,0,2.026-0.335,3.083-0.995c1.067-0.666,1.909-1.476,2.451-2.071
			c0.762,0.553,1.977,1.216,3.42,1.216c1.363,0,2.627-0.573,3.757-1.703c2.22-2.22,2.76-4.06,2.815-5.229
			c1.67-0.155,4.82-0.909,6.593-4.261c1.553-2.937,1.834-4.913,1.831-5.97c0.699-0.333,1.809-0.947,2.905-1.902
			c0.783,2.309,2.147,3.4,3.271,3.895c0.827,0.363,1.683,0.502,2.49,0.502c1.622,0,3.053-0.559,3.681-0.977
			c0.626-0.418,2.093-1.396-0.684-12.504c-0.651-2.606-1.187-7.271-1.406-9.348c0.515-0.089,0.835-0.352,0.998-0.555
			c1.084-1.355,3.281-6.83,3.942-11.017c0.728-4.604,0.09-6.179-2.831-9.997c-2.632-3.442-8.554-7.61-9.928-8.555
			c-1.481-4.586-2.831-9.551-2.412-11.75c0.822-4.32,2.672-8.146,10.075-15.986c7.359-7.794,23.956-22.807,24.123-22.957
			c0.409-0.371,0.441-1.003,0.071-1.413c-0.371-0.409-1.003-0.44-1.413-0.071c-0.167,0.151-16.822,15.217-24.235,23.068
			c-7.741,8.196-9.692,12.293-10.586,16.984c-0.673,3.536,1.908,11.33,4.61,19.01c0.499,1.417,0.928,2.641,1.194,3.485
			c-1.952,3.779-1.859,7.546-1.068,11.897c0.647,3.563,3.304,6.331,5.4,7.402c0.157,1.571,0.75,7.19,1.525,10.288
			c0.152,0.608,0.286,1.174,0.412,1.72c-1.778,0.746-2.713,2.356-2.997,3.283c-0.162,0.528,0.135,1.088,0.663,1.249
			c0.098,0.03,0.196,0.044,0.293,0.044c0.429,0,0.824-0.276,0.956-0.707c0.118-0.387,0.599-1.312,1.525-1.853
			c0.875,4.311,0.815,6.206,0.597,6.659c-0.598,0.35-2.536,0.995-4.191,0.268c-1.267-0.558-2.095-1.84-2.476-3.795
			c0.461-0.626,0.874-1.331,1.185-2.132c1.752-4.506,1.047-8.157,0.022-11.432c-0.903-2.89-7.004-18.258-10.276-20.524
			c-1.987-1.376-4.453-1.138-5.897,0.498c-0.346,0.392-0.62,0.837-0.819,1.323c-0.817-0.611-2.039-0.952-3.5-0.661
			c-3.877,0.776-5.311,3.467-4.621,8.88c-0.895-0.071-1.979,0.233-3.151,0.903c-3.809,2.177-2.815,7.94-2.338,10.71
			c0.251,1.458,0.482,2.987,0.656,4.184c-0.999-0.374-2.346-0.372-3.524,0.259c-2.905,1.556-3.196,4.407-3.209,4.554
			c-0.028,0.438-0.533,8.568,0.287,15.221c-0.331,0.841-1.098,3.364-0.726,8.005c0.36,4.51,0.523,8.938-0.714,10.794
			c-0.729,1.093-2.482,2.098-3.909,2.238c-0.485,0.048-1.157,0.017-1.585-0.412c-0.727-0.727-1.022-2.439-1.307-4.096
			c-0.046-0.269-0.096-0.54-0.145-0.81c0.2-0.006,0.395-0.009,0.597-0.018c1.115-0.049,2.38-0.106,2.832,0.353
			c0.219,0.222,0.312,0.646,0.275,1.262c-0.032,0.551,0.389,1.023,0.94,1.056c0.02,0.001,0.04,0.002,0.059,0.002
			c0.526,0,0.966-0.41,0.998-0.942c0.07-1.203-0.215-2.14-0.848-2.781c-1.077-1.092-2.813-1.015-4.344-0.946
			c-0.318,0.014-0.632,0.024-0.939,0.028c-0.397-1.542-2.376-9.548-2.154-14.87c1.203,0.999,2.62,1.984,3.809,2.505
			c0.131,0.058,0.267,0.084,0.401,0.084c0.385,0,0.752-0.224,0.917-0.599c0.222-0.506-0.009-1.096-0.515-1.317
			c-1.338-0.586-3.104-1.932-4.289-3.052c0.756-3.168,3.021-6.703,5.056-9.855c1.395-2.161,2.713-4.202,3.485-6.006
			c0.218-0.508-0.018-1.096-0.525-1.312c-0.51-0.222-1.096,0.017-1.313,0.525c-0.707,1.647-1.979,3.62-3.328,5.709
			c-2.32,3.594-4.95,7.668-5.534,11.457c-0.359,2.333-0.142,5.405,0.267,8.325c-1.68-3.811-3.367-7.793-3.411-7.898c0,0,0,0,0-0.001
			c-0.757-1.809-2.582-7.037-1.934-9.467c0.462-1.735,2.62-5.505,4.523-8.83c1.591-2.779,3.093-5.404,3.788-7.092
			c1.464-3.559,2.86-5.487,2.874-5.507c0.326-0.445,0.229-1.071-0.216-1.397c-0.445-0.323-1.068-0.229-1.396,0.215
			c-0.048,0.065-0.937,1.295-2.056,3.584c-0.017-0.064-0.028-0.124-0.047-0.188c-0.152-0.531-0.706-0.838-1.236-0.688
			c-0.531,0.151-0.839,0.705-0.688,1.236c0.333,1.168,0.464,2.18,0.406,3.091c-0.758,1.543-1.93,3.595-3.164,5.75
			c-2.06,3.6-4.19,7.321-4.72,9.309c-0.407,1.528-0.138,3.614,0.321,5.547c-1.953-2.471-4.187-5.428-5.067-7.077
			c-1.252-2.348-1.271-3.777-1.243-4.198c0.6-0.832,2.657-3.918,4.391-9.313c1.945-6.052,4.35-12.187,4.374-12.248
			c0.202-0.514-0.051-1.094-0.565-1.296c-0.515-0.202-1.094,0.05-1.296,0.565c-0.024,0.062-2.451,6.253-4.417,12.367
			c-1.25,3.892-2.686,6.519-3.522,7.865c-0.897-1.197-2.219-3.308-2.219-5.36c0-1.969,0.722-3.733,1.918-6.656
			c0.782-1.911,1.755-4.289,2.863-7.527c0.888-2.596,1.421-4.4,1.849-5.85c0.96-3.255,1.399-4.74,4.232-9.811
			c1.387-2.482,3.115-5.071,4.945-7.812c3.582-5.364,7.286-10.911,8.346-15.761c1.348-6.161,1.742-6.62,6.569-12.241l1.567-1.83
			c6.321-7.411,12.94-16.16,13.007-16.248c0.333-0.44,0.246-1.067-0.195-1.4c-0.439-0.335-1.068-0.246-1.4,0.195
			c-0.06,0.08-5.568,7.357-11.313,14.233c-2.069-2.075-7.793-7.994-9.862-11.96l-1.113-2.134c-0.255-0.488-0.859-0.679-1.349-0.424
			c-0.49,0.256-0.68,0.859-0.424,1.35l1.113,2.134c2.27,4.352,8.327,10.563,10.342,12.571c-0.109,0.128-0.218,0.258-0.326,0.385
			l-1.563,1.824c-4.917,5.728-5.549,6.464-7.005,13.117c-0.98,4.481-4.577,9.868-8.055,15.077c-1.771,2.653-3.603,5.396-5.028,7.947
			c-2.942,5.266-3.431,6.921-4.405,10.22c-0.22,0.745-0.469,1.589-0.78,2.583c-0.598-2.715-1.294-7.046-1.294-12.537
			c0-0.021-0.011-0.04-0.013-0.06c-0.001-0.022,0.008-0.042,0.005-0.064c-0.108-0.868,0.399-1.806,0.937-2.798
			c0.27-0.499,0.549-1.015,0.76-1.545c0.204-0.514-0.048-1.095-0.561-1.299c-0.515-0.204-1.095,0.048-1.298,0.561
			c-0.167,0.421-0.406,0.863-0.659,1.331c-0.14,0.258-0.282,0.524-0.42,0.797c-1.197-2.768-3.112-7.253-4.756-11.361
			c-2.243-5.606-4.028-8.726-7.271-14.389c-0.615-1.073-1.283-2.241-2.019-3.538c-4.574-8.057-13.172-21.813-13.258-21.951
			c-0.292-0.469-0.908-0.61-1.378-0.317c-0.468,0.293-0.61,0.909-0.317,1.378C164.209,110.62,172.784,124.34,177.337,132.36z
			 M260.304,183.63c-0.023-0.682-0.022-1.188,0.095-1.616c1.284,0.308,2.801,1.042,3.037,1.648c0.044,0.113,0.11,0.209,0.186,0.296
			c-0.269,0.836-0.556,1.642-0.842,2.375c-0.3-0.198-0.596-0.429-0.905-0.687c-0.466-0.389-0.982-0.8-1.584-1.108
			c0.008-0.05,0.03-0.095,0.03-0.147C260.321,184.137,260.312,183.883,260.304,183.63z M256.24,183.297
			c-0.849-4.673-0.842-8.34,1.812-12.179c0.314-0.454,0.201-1.077-0.254-1.391c-0.32-0.223-0.72-0.221-1.041-0.047
			c-0.212-0.615-0.453-1.301-0.724-2.072c-0.309-0.879-0.666-1.895-1.039-2.98c2.291,1.704,5.577,4.331,7.258,6.529
			c2.753,3.601,3.051,4.63,2.444,8.47c-0.103,0.65-0.247,1.327-0.415,2.007c-1.296-1.059-3.339-1.625-4.352-1.739
			c-0.045-0.005-0.086,0.011-0.13,0.012c-0.073,0.001-0.143,0.002-0.214,0.02c-0.06,0.015-0.113,0.041-0.168,0.065
			c-0.061,0.027-0.119,0.052-0.174,0.091c-0.057,0.041-0.102,0.092-0.15,0.144c-0.03,0.033-0.069,0.054-0.095,0.091
			c-0.017,0.024-0.028,0.048-0.044,0.072c-0.004,0.007-0.008,0.013-0.012,0.02c-0.708,1.082-0.674,2.252-0.64,3.287
			c0.008,0.229,0.017,0.459,0.016,0.69c0,0.034,0.016,0.062,0.019,0.095c-0.116,0.128-0.211,0.275-0.248,0.456
			c-0.111,0.541,0.237,1.069,0.778,1.181c0.596,0.123,1.119,0.559,1.725,1.063c0.427,0.356,0.875,0.719,1.396,1.018
			c-0.276,0.596-0.523,1.068-0.707,1.347C260.312,189.426,256.94,187.146,256.24,183.297z M242.514,175.944
			c0.79-0.895,2.098-0.982,3.26-0.177c2.398,1.661,8.246,15.445,9.507,19.478c1.058,3.382,1.466,6.396,0.022,10.109
			c-0.9,2.313-2.903,3.718-4.151,4.403c-0.433-1.915-1.327-5.124-2.401-8.789c0.271-0.193,0.58-0.403,0.903-0.623
			c1.03-0.698,2.096-1.421,2.704-2.086c0.372-0.408,0.344-1.04-0.063-1.413c-0.408-0.37-1.041-0.345-1.413,0.063
			c-0.449,0.491-1.459,1.176-2.35,1.78c-0.128,0.087-0.254,0.172-0.378,0.256c-1.699-5.714-3.679-12.079-4.975-16.205
			c1.094-0.476,2.384-1.335,2.836-1.883c0.353-0.425,0.292-1.056-0.134-1.407c-0.427-0.354-1.057-0.292-1.407,0.134
			c-0.287,0.347-1.215,0.91-1.898,1.243c-0.38-1.204-0.641-2.025-0.739-2.335C241.725,177.475,241.96,176.571,242.514,175.944z
			 M237.088,177.244c0.243-0.049,0.475-0.073,0.689-0.073c1.646,0,2.053,1.552,2.093,1.72c0.003,0.016,0.015,0.028,0.019,0.044
			c0.004,0.017,0,0.034,0.006,0.051c0.059,0.186,3.943,12.396,6.74,21.872c0.001,0.004,0.002,0.008,0.004,0.012
			c1.45,4.914,2.608,9.091,2.787,10.471c0.003,0.021,0.015,0.038,0.019,0.058c0.003,0.018-0.002,0.035,0.002,0.053
			c0.004,0.018,0.358,1.782-1.569,5.428c-1.378,2.605-3.92,3.121-5.147,3.214l-2.076-8.518c1.686-0.153,3.391-1.03,4.884-1.92
			c0.474-0.282,0.629-0.896,0.346-1.371c-0.281-0.473-0.894-0.629-1.371-0.346c-0.856,0.51-2.77,1.637-4.342,1.652l-5.817-23.866
			C232.994,178.678,234.958,177.67,237.088,177.244z M229.915,186.803c0.939-0.537,1.551-0.649,1.897-0.649
			c0.382,0,0.566,0.132,0.634,0.195l0.951,3.901c-0.782,0.744-1.814,1.373-2.557,1.287c-0.54-0.045-1.04,0.344-1.097,0.894
			c-0.056,0.549,0.344,1.04,0.894,1.097c0.112,0.011,0.224,0.017,0.335,0.017c1.123,0,2.164-0.561,2.951-1.14l7.053,28.936
			c0.004,0.017,0.015,0.03,0.02,0.047c0.009,0.029,0.011,0.06,0.023,0.088c0.007,0.017,0.513,1.707-2.196,4.416
			c-0.752,0.752-1.519,1.117-2.343,1.117c-1.196,0-2.216-0.778-2.621-1.135c-0.485-2.597-3.828-20.504-4.328-23.986
			c0-0.001-0.001-0.001-0.001-0.002c-0.021-0.162-0.458-3.447-0.974-6.447C228.155,193.115,227.323,188.284,229.915,186.803z
			 M222.501,204.936c0.008-0.077,0.229-1.919,2.161-2.953c0.373-0.2,0.733-0.297,1.101-0.297c0.844,0,1.53,0.53,1.837,0.812
			c0.095,0.622,0.245,1.52,0.434,2.611c-1.074,0.634-2.881,1.27-3.776,1.154c-0.545-0.052-1.044,0.333-1.106,0.882
			s0.333,1.044,0.881,1.106c0.134,0.015,0.274,0.021,0.419,0.021c1.214,0,2.751-0.509,3.943-1.098
			c1.155,6.52,3.047,16.654,3.474,18.938c-0.386,0.464-1.202,1.354-2.321,2.053c-0.733,0.458-1.414,0.69-2.022,0.69
			c-0.001,0-0.001,0-0.001,0c-1.865,0-3.071-2.362-3.754-4.345C221.664,218.403,222.495,205.035,222.501,204.936z"/>
		<path d="M219.997,196.959c0.133,0.06,0.273,0.088,0.41,0.088c0.381,0,0.746-0.219,0.912-0.589
			c0.137-0.304,0.329-0.624,0.542-0.902c0.335-0.438,0.251-1.066-0.187-1.402c-0.438-0.333-1.066-0.251-1.402,0.188
			c-0.308,0.402-0.576,0.851-0.776,1.295C219.269,196.14,219.493,196.731,219.997,196.959z"/>
		<path d="M198.731,152.859c0.046,0.006,0.092,0.009,0.137,0.009c0.492,0,0.92-0.363,0.989-0.864c0.036-0.26,0.18-0.539,0.395-0.768
			c0.379-0.401,0.362-1.034-0.04-1.413s-1.035-0.361-1.414,0.04c-0.503,0.532-0.831,1.196-0.923,1.869
			C197.801,152.279,198.184,152.784,198.731,152.859z"/>
		<path d="M218.252,177.477l-0.434,0.65c-0.307,0.459-0.184,1.08,0.275,1.388c0.17,0.114,0.364,0.169,0.555,0.169
			c0.322,0,0.639-0.155,0.832-0.443l0.441-0.662L218.252,177.477z"/>
		<path d="M236.234,184.959c0.138,0,0.278-0.028,0.413-0.09c0.278-0.126,0.573-0.229,0.868-0.333
			c0.839-0.295,1.789-0.63,2.532-1.439c0.373-0.406,0.346-1.039-0.062-1.413c-0.405-0.373-1.04-0.347-1.413,0.062
			c-0.404,0.441-1.015,0.656-1.722,0.904c-0.352,0.124-0.701,0.249-1.032,0.399c-0.503,0.229-0.725,0.821-0.496,1.324
			C235.49,184.741,235.854,184.959,236.234,184.959z"/>
		<path d="M207.621,167.078c-0.151,0.35-0.373,0.682-0.608,1.034c-0.371,0.555-0.791,1.183-0.984,1.984
			c-0.13,0.537,0.2,1.077,0.736,1.207c0.079,0.02,0.158,0.028,0.236,0.028c0.451,0,0.86-0.307,0.971-0.765
			c0.111-0.456,0.386-0.867,0.704-1.344c0.262-0.392,0.559-0.836,0.782-1.353c0.219-0.507-0.015-1.096-0.521-1.314
			C208.427,166.335,207.839,166.57,207.621,167.078z"/>
	</g>
</g>
</svg>
