<?xml version="1.0" encoding="utf-8"?>
<!-- Generator: Adobe Illustrator 17.0.0, SVG Export Plug-In . SVG Version: 6.00 Build 0)  -->
<!DOCTYPE svg PUBLIC "-//W3C//DTD SVG 1.1//EN" "http://www.w3.org/Graphics/SVG/1.1/DTD/svg11.dtd">
<svg version="1.1" xmlns="http://www.w3.org/2000/svg" xmlns:xlink="http://www.w3.org/1999/xlink" x="0px" y="0px" width="450px"
	 height="352px" viewBox="0 0 450 352" enable-background="new 0 0 450 352" xml:space="preserve" fill="#6c584c">
<g id="Layer_2" opacity="0.4">
</g>
<g id="Layer_1">
	<g>
		<path fill="none" stroke="#6c584c" stroke-width="2" stroke-linecap="round" stroke-linejoin="round" stroke-miterlimit="10" d="
			M242.574,170.786c0,0-4.577-6.588-8.092-10.101c-3.515-3.514-5.932-5.711-6.37-6.589c-0.438-0.878-1.537-2.635-1.757-3.733
			c-0.22-1.099-2.774-17.179-2.994-18.058c-0.22-0.879-0.056-4.346-0.056-4.346s-9.884,4.394-14.716,2.636
			c0,0,2.391,20.866,2.83,25.259c0.44,4.393,3.515,7.468,5.052,9.444c1.537,1.977,1.098,1.977,2.416,3.515
			c1.318,1.537,1.758,3.953,3.734,6.149c1.977,2.196,4.393,5.271,6.589,7.248c2.196,1.977,6.15,5.052,8.347,7.468
			c2.196,2.416,4.393,5.491,4.393,5.491s1.316,5.822,1.316,13.232c0,3.031,0.701,6.3,0.334,9.311
			c-0.166,1.358-0.733,2.569-0.886,3.954c-0.234,2.145-0.625,4.242-1.208,6.321c-1.055,3.763-1.683,7.711-2.38,11.533
			c-0.61,3.35-1.247,6.776-1.247,10.202c0,1.237-0.007,2.476,0,3.713c0.005,0.9,0.039,3.304-0.618,3.713"/>
		<path fill="none" stroke="##6c584c" stroke-width="2" stroke-linecap="round" stroke-linejoin="round" stroke-miterlimit="10" d="
			M209.926,130.913c0,0-0.25-5.68,0.629-8.755c0,0,8.224,0.749,11.958-1.667l0.792,7.468"/>
		<path fill="none" stroke="##6c584c" stroke-width="2" stroke-linecap="round" stroke-linejoin="round" stroke-miterlimit="10" d="
			M211.231,154.433c0,0-1.13,8.449-3.107,13.061c-1.977,4.612-6.302,12.459-8.718,16.632"/>
		<path fill="none" stroke="#6c584c" stroke-width="2" stroke-linecap="round" stroke-linejoin="round" stroke-miterlimit="10" d="
			M193.848,162.661c0,0,1.099,5.053,2.855,11.861c1.757,6.809,4.172,11.201,1.537,13.837c-2.635,2.636-10.762-2.855-12.739,0"/>
		<path fill="none" stroke="#6c584c" stroke-width="2" stroke-linecap="round" stroke-linejoin="round" stroke-miterlimit="10" d="
			M190.773,188.579c-0.715,1.162-1.782,2.932-2.801,3.789c-1.112,0.934-3.544,0.904-4.667-0.055c-1.295-1.105-2.021-2.38-2.41-3.961
			c-0.411-1.669-0.14-3.554-0.617-5.264c-0.874-3.134-2.287-6.343-0.438-9.611c0.823-1.455,2.273-2.24,3.684-2.964
			c1.517-0.776,2.825-2.03,3.788-3.411c1.02-1.462,1.237-3.368,2.533-4.721c1.632-1.702,4.939-3.868,7.077-1.698"/>
		<path fill="none" stroke="#6c584c" stroke-width="2" stroke-linecap="round" stroke-linejoin="round" stroke-miterlimit="10" d="
			M194.507,165.568c0,0,5.271-10.593,7.028-14.107c0,0,3.319-13.178,3.979-19.108c0.659-5.931,1.807-19.548,1.807-19.548
			c-0.979-3.185-2.168-7.632-0.488-10.767"/>
		
			<line fill="none" stroke="#6c584c" stroke-width="2" stroke-linecap="round" stroke-linejoin="round" stroke-miterlimit="10" x1="195.605" y1="189.098" x2="186.08" y2="203.768"/>
		<path fill="none" stroke="#6c584c" stroke-width="2" stroke-linecap="round" stroke-linejoin="round" stroke-miterlimit="10" d="
			M154.094,163.319c0,1.8,0.178,3.61,1.03,5.227c0.881,1.671,0.323,3.13,0.642,4.944c0.34,1.93,1.243,3.726,2.578,5.158
			c0.563,0.604,1.613,1.707,2.157,2.29c-0.001-0.001-3.332-4.002-1.795-9.711c1.538-5.71,0-6.15-1.318-9.663
			s-0.439-7.688,2.196-11.203c2.636-3.515,6.589-4.173,6.589-4.173s2.197-1.758,2.636-3.734"/>
		<path fill="none" stroke="#6c584c" stroke-width="2" stroke-linecap="round" stroke-linejoin="round" stroke-miterlimit="10" d="
			M167.49,145.089c0,1.878-0.082,3.783,0.818,5.49c0.87,1.65,2.481,3.143,3.793,4.448c1.201,1.195,2.558,2.236,3.74,3.459
			c1.225,1.268,1.741,3.185,1.258,4.867c-0.559,1.947-0.699,3.97-1.261,5.926c-1.318,4.583-7.248,10.952-11.421,10.952
			c0,0-5.03-1.235-6.029-4.352"/>
		<path fill="none" stroke="#6c584c" stroke-width="2" stroke-linecap="round" stroke-linejoin="round" stroke-miterlimit="10" d="
			M148.978,181.421c0,0,3.358-11.513,2.48-18.76c-0.878-7.247,1.098-8.347,2.635-12.74c1.537-4.394,3.075-5.71,8.347-9.444
			c5.271-3.734,8.566-2.196,8.566-2.196s2.695-0.879,5.74,2.416c3.045,3.295,5.242,5.052,5.461,8.127
			c0.22,3.075,0.219,3.092,1.098,5.609c0.879,2.518,2.878,4.345,3.416,5.518c0.538,1.173,1.395,5.617,1.395,5.617"/>
		<path fill="none" stroke="#6c584c" stroke-width="2" stroke-linecap="round" stroke-linejoin="round" stroke-miterlimit="10" d="
			M155.655,171.447c0,0-1.336,7.028-4.414,8.785c-3.078,1.757-6.153,2.957-9.887,3.895s-9.884,2.695-12.739,6.648
			c0,0,4.393,1.536,7.248,6.149s5.86,9.884,5.86,9.884s-0.411,6.285-0.609,10.939c-0.199,4.654-2.395,15.856-2.395,15.856"/>
		<path fill="none" stroke="#6c584c" stroke-width="2" stroke-linecap="round" stroke-linejoin="round" stroke-miterlimit="10" d="
			M130.573,191.746c0,0-1.518,1.883-1.958,8.253c-0.439,6.37-2.196,18.89-1.977,25.918c0.219,7.028-1.355,19.767,3.935,21.085
			c5.29,1.318,18.827,1.758,26.295,0.879"/>
		<path fill="none" stroke="#6c584c" stroke-width="2" stroke-linecap="round" stroke-linejoin="round" stroke-miterlimit="10" d="
			M169.937,177.632c0,0-2.157,5.077,1.069,8.311l4.612,0.439c0,0-1.757,7.688-12.739,7.688c-10.982,0-17.496-11.151-17.496-11.151"
			/>
		<path fill="none" stroke="#6c584c" stroke-width="2" stroke-linecap="round" stroke-linejoin="round" stroke-miterlimit="10" d="
			M173.641,185.851c0,0,2.823-5.18,5.804-5.619"/>
		<path fill="none" stroke="#6c584c" stroke-width="2" stroke-linecap="round" stroke-linejoin="round" stroke-miterlimit="10" d="
			M183.305,192.314c0,0,0.682,7.026,3.416,12.957c2.734,5.931-2.306,14.935-2.306,14.935"/>
		<path fill="none" stroke="#6c584c" stroke-width="2" stroke-linecap="round" stroke-linejoin="round" stroke-miterlimit="10" d="
			M172.543,175.4c1.362-0.348,2.061,2.316,2.147,3.124c0.158,1.484-0.416,3.193,0.927,4.124"/>
		<path fill="none" stroke="#6c584c" stroke-width="2" stroke-linecap="round" stroke-linejoin="round" stroke-miterlimit="10" d="
			M206.368,171.447c0.938,0.214,1.299,1.676,1.759,2.416c0.629,1.014,1.21,2.169,1.97,3.074c1.792,2.137,3.314,4.409,5.288,6.419
			c1.719,1.749,3.84,3.602,5.968,4.844c0.987,0.575,2.047,0.91,2.977,1.644c0.896,0.705,1.888,1.644,2.685,2.517
			c1.162,1.273,2.361,2.606,3.574,3.862c0.637,0.659,1.392,1.235,2.143,1.746c0.819,0.556,1.352,1.197,2.024,1.981
			c2.548,2.969,3.295,7.019,5.711,10.099c0.193,0.245,0.442,0.419,0.582,0.67c-0.897,0.142-1.739,0.04-2.625,0.264
			c-0.814,0.206-1.743,0.362-2.624,0.438c-2.101,0.183-3.634-1.583-5.49-2.256c-3.576-1.294-7.649-0.633-10.983,0.938
			c-1.68,0.792-3.214,1.118-5.052,0.652c-1.798-0.454-3.748-1.344-5.319-2.355c-3.427-2.204-6.823-4.398-10.934-4.882
			c-1.711-0.201-3.641-0.35-5.271-0.823c-0.622-0.181-4.384-2.53-4.052-2.96"/>
		<path fill="none" stroke="#6c584c" stroke-width="2" stroke-linecap="round" stroke-linejoin="round" stroke-miterlimit="10" d="
			M203.074,177.596c0.158-0.069,0.836,1.516,1.043,1.978c0.57,1.268,1.258,2.561,2.02,3.685c0.659,0.974,1.43,2.02,2.197,2.904
			c1.048,1.207,2.449,2.185,3.306,3.514"/>
		<path fill="none" stroke="#6c584c" stroke-width="2" stroke-linecap="round" stroke-linejoin="round" stroke-miterlimit="10" d="
			M215.592,192.751c0.233,0.049,0.391,0.206,0.439,0.439"/>
		<path fill="none" stroke="#6c584c" stroke-width="2" stroke-linecap="round" stroke-linejoin="round" stroke-miterlimit="10" d="
			M198.681,187.26c-1.005-2.017-1.151-4.069-2.851-5.698c-1.694-1.624-3.608-2.017-5.715-2.807c-2.212-0.83-3.729-2.275-5.722-3.52
			c-0.692-0.432-3.029-2.934-4.552-1.758"/>
		<path fill="none" stroke="#6c584c" stroke-width="2" stroke-linecap="round" stroke-linejoin="round" stroke-miterlimit="10" d="
			M160.244,210.541c-1.382-0.328-4.12-0.772-4.431,1.284c-1.495,0.189-2.402,0.205-3.536,1.303c-1.22,1.181-1.064,1.943-1.296,3.525
			c-1.015,0.275-2.058,1.258-2.328,2.284c-0.152,0.576-0.064,1.322-0.05,1.927c0.013,0.521,0.508,1.357,0.401,1.708
			c-0.126,0.412-0.855,0.549-1.12,0.867c-0.398,0.48-0.383,0.981-0.379,1.598c0.007,1.157-0.149,2.559,0.851,3.343
			c-0.172,0.487-0.841,0.5-1.235,0.886c-0.402,0.394-0.591,0.806-0.665,1.311c-0.134,0.912,0.095,2.473,0.83,3.026"/>
		<path fill="none" stroke="#6c584c" stroke-width="2" stroke-linecap="round" stroke-linejoin="round" stroke-miterlimit="10" d="
			M160.902,210.761c-0.206-2.011,3.89-2.753,4.832-1.405c0.684-1.013,2.746-1.118,3.739-0.784c1.357,0.454,1.646,1.238,2.241,2.383
			c1.699-0.881,5.326-0.867,5.254,1.97c1.219,0.154,2.247,0.05,3.263,0.901c1.145,0.959,0.965,2.183,1.131,3.491
			c1.105,0.151,1.957,0.198,2.553,1.353c0.224,0.434,0.442,1.056,0.5,1.536c0.066,0.552-0.255,1.109-0.241,1.525
			c0.039,1.157,1.382,1.352,1.724,2.423c0.353,1.107-0.073,2.357-0.532,3.305c2.098,0.718,0.875,2.531,0.576,3.949"/>
		<path fill="none" stroke="#6c584c" stroke-width="2" stroke-linecap="round" stroke-linejoin="round" stroke-miterlimit="10" d="
			M150.799,231.408c-1.962,0.02-3.104,1.436-3.552,3.261c-1.116,0.154-1.823,0.155-2.542,1.127c-0.557,0.752-1.292,2.48-0.499,3.036
			c1.095,0.767,6.128,0.088,5.934-1.714"/>
		<path fill="none" stroke="#6c584c" stroke-width="2" stroke-linecap="round" stroke-linejoin="round" stroke-miterlimit="10" d="
			M151.018,235.361c-0.726,0.897-0.875,1.897-0.879,3.075c-0.005,1.487,0.736,1.749,1.593,2.823
			c1.407-0.522,2.186-2.234,3.415-2.801c0.103,1.407,0.414,2.088,1.806,2.619c1.387,0.528,1.853-0.715,2.63-1.764"/>
		<path fill="none" stroke="#6c584c" stroke-width="2" stroke-linecap="round" stroke-linejoin="round" stroke-miterlimit="10" d="
			M146.626,229.65c-0.597-1.625-5.331-2.1-5.507-0.219c-0.096,1.024,1.145,2.312,1.982,2.634c0.633,0.244,2.677,0.87,3.086,0.221"/>
		<path fill="none" stroke="#6c584c" stroke-width="2" stroke-linecap="round" stroke-linejoin="round" stroke-miterlimit="10" d="
			M183.745,230.968c2.766,0.648,1.657,5.339-0.621,5.968c-0.186,1.283,0.049,2.343-1.185,3.201
			c-0.434,0.301-0.973,0.511-1.488,0.493c-0.691-0.023-0.738-0.338-1.264-0.635c-0.422,1.096-1.55,2.042-2.69,2.179
			c-1.453,0.175-1.941-0.545-2.861-1.465c-0.132,1.424-1.657,1.989-2.839,2.131c-0.664,0.079-1.472-0.185-1.944-0.659
			c-0.487-0.49-0.3-1.446-0.655-1.752c0.1,2.855-6.462,2.186-6.455-0.659c-1.484,1.387-2.486-1.086-2.378-2.433
			c0.105-1.314,1.064-2.783,2.635-2.416"/>
		<path fill="none" stroke="#6c584c" stroke-width="2" stroke-linecap="round" stroke-linejoin="round" stroke-miterlimit="10" d="
			M167.272,236.679c-1.254-2.018,0.506-6.275,3.257-5.673c0.515,1.313,1.054,2.507,0.421,3.915c-0.59,1.311-1.967,2.348-3.458,2.196
			"/>
		<path fill="none" stroke="##6c584c" stroke-width="2" stroke-linecap="round" stroke-linejoin="round" stroke-miterlimit="10" d="
			M165.295,237.557c0.57,0,1.192-0.071,1.757,0.001c0.701,0.09,1.072,0.521,1.757,0.658"/>
		<path fill="none" stroke="#6c584c" stroke-width="2" stroke-linecap="round" stroke-linejoin="round" stroke-miterlimit="10" d="
			M151.018,231.627c0.948,0,2.01-0.179,2.86,0.274c0.645,0.342,1.235,1.504,1.742,1.553c0.357,0.033,0.898-0.492,1.328-0.514
			c0.463-0.024,1.065,0.111,1.488,0.272c0.962,0.368,1.346,0.814,1.867,1.691c0.133,0.03,0.186-0.038,0.16-0.203"/>
		<path fill="none" stroke="#6c584c" stroke-width="2" stroke-linecap="round" stroke-linejoin="round" stroke-miterlimit="10" d="
			M183.965,230.748c-0.669,0-1.753-0.207-2.367,0.045c-0.795,0.325-0.899,1.433-1.576,1.723c-0.698,0.299-1.884-0.142-2.646-0.01
			c-0.876,0.151-1.092,0.526-1.539,1.317"/>
		<path fill="none" stroke="#6c584c" stroke-width="2" stroke-linecap="round" stroke-linejoin="round" stroke-miterlimit="10" d="
			M186.82,229.211c1.087-0.336,1.799-1.296,3.075-1.104c0.962,0.145,3.102,1.169,2.639,2.207c-1.08,2.425-4.11,2.63-6.373,2.63"/>
		<path fill="none" stroke="#6c584c" stroke-width="2" stroke-linecap="round" stroke-linejoin="round" stroke-miterlimit="10" d="
			M184.404,236.459c1.213,0.009,1.651,0.108,2.575,0.933c0.628,0.56,1.434,1.881,1.126,2.763c-0.902,0.21-1.658,0.258-2.602,0.258
			c-0.838,0-1.643-0.273-2.384-0.252c-0.058-0.131-0.374-0.877-0.337-1.017"/>
		<path fill="none" stroke="#6c584c" stroke-width="2" stroke-linecap="round" stroke-linejoin="round" stroke-miterlimit="10" d="
			M152.995,224.818c0-0.657-0.143-1.422,0.203-1.982c0.422-0.683,1.163-0.569,1.773-0.874"/>
		<path fill="none" stroke="#6c584c" stroke-width="2" stroke-linecap="round" stroke-linejoin="round" stroke-miterlimit="10" d="
			M157.388,218.009c-0.043-0.651,1.798-1.782,2.196-1.099"/>
		<path fill="none" stroke="#6c584c" stroke-width="2" stroke-linecap="round" stroke-linejoin="round" stroke-miterlimit="10" d="
			M158.926,224.16c0.147-0.603,0.42-1.049,1.098-0.879"/>
		<path fill="none" stroke="#6c584c" stroke-width="2" stroke-linecap="round" stroke-linejoin="round" stroke-miterlimit="10" d="
			M173.861,217.789c0.949-0.205,1.06,0.366,1.318,1.099"/>
		<path fill="none" stroke="#6c584c" stroke-width="2" stroke-linecap="round" stroke-linejoin="round" stroke-miterlimit="10" d="
			M135.644,234.04c0,0,6.293-0.217,8.661,2.419"/>
		<path fill="none" stroke="#6c584c" stroke-width="2" stroke-linecap="round" stroke-linejoin="round" stroke-miterlimit="10" d="
			M141.44,211.433c0,0,1.546,15.234,2.548,16.65"/>
		<path fill="none" stroke="#6c584c" stroke-width="2" stroke-linecap="round" stroke-linejoin="round" stroke-miterlimit="10" d="
			M211.416,121.366v-10.982c0,0-3.388-4.393-4.096-8.565"/>
		<path fill="none" stroke="#6c584c" stroke-width="2" stroke-linecap="round" stroke-linejoin="round" stroke-miterlimit="10" d="
			M222.513,120.492l-1.404-11.646c0,0,1.976-2.409,2.196-5.487c0.22-3.078-0.219-4.617-1.098-5.495
			c-0.879-0.878-2.417-1.757-2.417-1.757l-3.946-1.317c0,0-1.545,2.854,1.75,3.733c0,0,0.878,0.335,0.879,1.318
			c0.001,0.983,0.081,2.645-0.975,3.138c-1.574,0.737-2.426-1.944-2.979-2.918"/>
		<path fill="none" stroke="#6c584c" stroke-width="2" stroke-linecap="round" stroke-linejoin="round" stroke-miterlimit="10" d="
			M206.832,101.598c0.743-0.757,2.087-0.815,3.074-0.609c1.085,0.226,1.727,1.118,2.685,1.444c1.447,0.492,1.498-0.992,1.71-1.933
			c0.174-0.775,0.37-0.532,0.827-1.143c0.289-0.386,0.885-1.812,0.489-2.045"/>
		<path fill="none" stroke="#6c584c" stroke-width="2" stroke-linecap="round" stroke-linejoin="round" stroke-miterlimit="10" d="
			M206.393,102.477c-0.021-0.98-0.67-1.759-0.39-2.807c0.177-0.663,0.929-1.714,1.669-1.845c0.104-0.707-0.24-1.918,0.082-2.553
			c0.417-0.823,1.399-0.629,2.114-0.741c0.627-2.241,4.479-1.968,5.309,0.038"/>
		<path fill="none" stroke="#6c584c" stroke-width="2" stroke-linecap="round" stroke-linejoin="round" stroke-miterlimit="10" d="
			M214.08,100.281c-0.686-1.251-1.566-2.208-3.075-2.636"/>
		<path fill="none" stroke="#6c584c" stroke-width="2" stroke-linecap="round" stroke-linejoin="round" stroke-miterlimit="10" d="
			M216.935,103.355c-0.67,0.466-1.338,2.782-1.317,3.515"/>
		<path fill="none" stroke="#6c584c" stroke-width="2" stroke-linecap="round" stroke-linejoin="round" stroke-miterlimit="10" d="
			M242.389,172.543c-0.213-1.167,0.523-3.069,1.367-3.904c0.177-0.176,0.475-0.188,0.67-0.429c0.219-0.27,0.204-0.645,0.374-0.943
			c0.455-0.8,1.098-0.684,1.982-0.654c1.43,0.048,2.576,0.691,3.905,1.152c0.623,0.217,1.379,0.459,2.014,0.617
			c0.592,0.148,7.26-0.157,7.729,0.282"/>
		<path fill="none" stroke="#6c584c" stroke-width="2" stroke-linecap="round" stroke-linejoin="round" stroke-miterlimit="10" d="
			M155.655,240.412c0,0-1.555,2.195,0.089,4.832c1.644,2.637,1.85,4.393,3.613,4.173s6.213,1.137,7.503-1.079
			c1.29-2.216,0.192-3.317,0.192-3.317l-0.192-2.944"/>
		<path fill="none" stroke="#6c584c" stroke-width="2" stroke-linecap="round" stroke-linejoin="round" stroke-miterlimit="10" d="
			M166.392,245.903c-1.305,0-2.692,0.156-3.954-0.22"/>
		<path fill="none" stroke="#6c584c" stroke-width="2" stroke-linecap="round" stroke-linejoin="round" stroke-miterlimit="10" d="
			M170.346,243.706c0,1.947,0.075,3.84,0.269,5.76c0.215,2.136,0.219,4.558,0.83,6.54"/>
		<path fill="none" stroke="#6c584c" stroke-width="2" stroke-linecap="round" stroke-linejoin="round" stroke-miterlimit="10" d="
			M164.854,249.857c-0.526,0.562-0.278,2.33-0.433,3.081c-0.207,1.005-0.324,2.183-0.885,3.068"/>
		<path fill="none" stroke="#6c584c" stroke-width="2" stroke-linecap="round" stroke-linejoin="round" stroke-miterlimit="10" d="
			M145.087,248.978c-0.04,1.84-1.101,3.574-1.098,5.491"/>
		<path fill="none" stroke="#6c584c" stroke-width="2" stroke-linecap="round" stroke-linejoin="round" stroke-miterlimit="10" d="
			M187.038,241.071c1.145,2.257,2.389,4.616,3.349,7.017c0.466,1.164,0.891,2.359,1.325,3.526c0.337,0.907,0.616,2.855,1.257,4.393"
			/>
		<path fill="none" stroke="#6c584c" stroke-width="2" stroke-linecap="round" stroke-linejoin="round" stroke-miterlimit="10" d="
			M242.827,184.623c0.002-1.631-0.206-3.204-0.22-4.832"/>
		<path fill="none" stroke="#6c584c" stroke-width="2" stroke-linecap="round" stroke-linejoin="round" stroke-miterlimit="10" d="
			M227.014,152.556c-1.263,0.251-2.773,1.753-3.295,2.855"/>
		<path fill="none" stroke="#6c584c" stroke-width="2" stroke-linecap="round" stroke-linejoin="round" stroke-miterlimit="10" d="
			M175.836,158.706c0.884,1.067,1.699,2.161,2.47,3.295c0.767,1.127,2.209,2.999,2.143,4.393"/>
		<path fill="none" stroke="#6c584c" stroke-width="2" stroke-linecap="round" stroke-linejoin="round" stroke-miterlimit="10" d="
			M181.547,170.786c0-0.439,0-0.878,0-1.317"/>
		<path fill="none" stroke="#6c584c" stroke-width="2" stroke-linecap="round" stroke-linejoin="round" stroke-miterlimit="10" d="
			M271.22,135.582c-0.178,1.27,0.844,2.886,1.271,4.004c0.624,1.637,1.456,3.185,2.047,4.83c0.307,0.854,0.364,1.802,0.512,2.685
			c0.076,0.458-0.063,1.756,0.221,2.022c0.312-1.507,1.17-3.262,2.703-3.81c0.288-0.104,0.604-0.228,0.888-0.258
			c0.501-0.053,0.645,0.117,0.772-0.473c0.099-0.453,0.046-1.068,0.093-1.532c0.056-0.545,0.028-1.105,0.028-1.654
			c0-1.791-0.355-3.471-0.989-5.118c-0.6-1.555-1.322-2.955-2.584-4.079c-0.684-0.609-1.321-1.211-2.17-1.589
			c-0.106-0.048-1.64-0.391-1.597-0.305c0,0-1.198-2.397-3.277-3.438c-2.078-1.04-8.635-1.998-11.593,0
			c-2.959,1.998-2.879,2.159-4.558,3.358c-1.678,1.199-2.237,1.679-2.958,3.599c-0.719,1.918-0.398,9.503-0.398,10.907
			s1.119,4.511,1.119,4.511s-0.081-1.826,0.479-4.145c0.56-2.318,0.48-3.278,1.599-3.678c1.119-0.399,3.518-0.159,5.757-0.96
			c2.239-0.799,2.719-1.52,4.477-1.919c1.759-0.399,2.958,0.399,4.718-0.238C269.537,137.662,271.063,136.699,271.22,135.582z"/>
		<path fill="none" stroke="#6c584c" stroke-width="2" stroke-linecap="round" stroke-linejoin="round" stroke-miterlimit="10" d="
			M277.292,144.733"/>
		<path fill="none" stroke="#6c584c" stroke-width="2" stroke-linecap="round" stroke-linejoin="round" stroke-miterlimit="10" d="
			M273.413,159.212c-0.56,2.398-0.719,3.438-2.878,5.277c-2.159,1.839-3.581,4.396-7.707,4.396s-5.326-1.438-7.484-4.077
			c-1.195-1.461-2.521-2.555-3.278-4.352c-0.793-1.883-1.088-4.112-1.133-6.144c-0.051-2.305-0.102-4.573-0.184-5.069"/>
		<path fill="none" stroke="#6c584c" stroke-width="2" stroke-linecap="round" stroke-linejoin="round" stroke-miterlimit="10" d="
			M271.22,135.582c0,0,0.795-1.463,0.795-2.582"/>
		<path fill="none" stroke="#6c584c" stroke-width="2" stroke-linecap="round" stroke-linejoin="round" stroke-miterlimit="10" d="
			M277.077,145.822c-0.021-0.081,2.788-1.277,2.683-0.619c1.343,2.319,0.752,4.602,0.757,5.709c0.005,1.079-0.439,2.115-0.855,3.082
			c-0.398,0.924-1.022,2.167-2.18,2.153c-0.084,0.675-0.079,1.348-0.174,2.017c-0.093,0.658-0.232,1.361-0.227,2.037
			c0.005,0.68,0,1.359,0,2.039c0,0.454-0.011,0.91,0,1.364c0.012,0.445,0.167,0.861,0.127,1.305c0,0,6.516,6.73,9.733,7.634
			c3.218,0.903,14.483,4.37,16.897,5.051c2.414,0.681,5.365,2.727,6.438,6.532c1.072,3.805,5.363,18.73,6.437,24.275
			c1.073,5.546,1.609,15.317,2.414,18.612c0.805,3.295,1.877,10.627,2.414,13.398s1.878,18.632,1.878,18.632"/>
		<path fill="none" stroke="#6c584c0" stroke-width="2" stroke-linecap="round" stroke-linejoin="round" stroke-miterlimit="10" d="
			M279.76,167.385c0,0,1.012,11.963,0,18.466c-1.012,6.503-0.865,6.371-3.815,16.674c-2.95,10.303-8.583,19.438-8.583,19.438
			c-1.072-5.933-7.242-22.767-9.353-27.893c-2.11-5.126-0.304-8.553-0.035-13.602c0.269-5.05-1.073-11.581-1.073-11.581
			s4.25,5.931,7.758,7.525c0,0,10.327-7.433,12.55-11.502"/>
		<path fill="none" stroke="#6c584c" stroke-width="2" stroke-linecap="round" stroke-linejoin="round" stroke-miterlimit="10" d="
			M257.905,181.421l6.754-5.01l10.213,5.01c0,0,5.086-7.771,5.086-11.172"/>
		<path fill="none" stroke="#6c584c" stroke-width="2" stroke-linecap="round" stroke-linejoin="round" stroke-miterlimit="10" d="
			M261.704,178.604c-0.303,1.715,1.35,4.7,1.575,6.376c0.229,1.703-0.695,3.695-0.954,5.432c-0.306,2.061-0.539,4.067-0.864,6.102
			c-0.123,0.77,0.053,0.781-0.137,1.568c-0.108,0.448-0.286,1.485-0.574,1.833c-0.099-0.135,0.267,2.352,0.325,2.183"/>
		<path fill="none" stroke="#6c584c" stroke-width="2" stroke-linecap="round" stroke-linejoin="round" stroke-miterlimit="10" d="
			M268.971,179.079c-0.024,2.258-1.102,4.426-1.401,6.645c-0.434,3.215,0.846,7.107,1.402,10.454
			c1.073,6.453,1.804,12.864,1.876,19.378"/>
		<path fill="none" stroke="#6c584c" stroke-width="2" stroke-linecap="round" stroke-linejoin="round" stroke-miterlimit="10" d="
			M263.606,185.786c0.467,0.612,2.377,0.89,3.219,0.805"/>
		<path fill="none" stroke="#6c584c" stroke-width="2" stroke-linecap="round" stroke-linejoin="round" stroke-miterlimit="10" d="
			M267.362,221.962c0,0-1.879,6.252-2.147,9.445c-0.268,3.193-0.557,25.724-0.557,25.724"/>
		
			<line fill="none" stroke="#6c584c" stroke-width="2" stroke-linecap="round" stroke-linejoin="round" stroke-miterlimit="10" x1="265.149" y1="232.572" x2="259.776" y2="257.15"/>
		<path fill="none" stroke="#6c584c" stroke-width="2" stroke-linecap="round" stroke-linejoin="round" stroke-miterlimit="10" d="
			M300.249,189.676c-0.164,0.936-0.372,14.414,0,21.757c0.372,7.343,1.177,12.727,1.177,12.727s2.95,9.871,3.755,12.973
			c0.805,3.102,1.878,5.401,2.414,8.677c0.536,3.275,0,7.122,0,7.122l0.238,6.113"/>
		<path fill="none" stroke="#6c584c" stroke-width="2" stroke-linecap="round" stroke-linejoin="round" stroke-miterlimit="10" d="
			M301.042,221.962c0,0-0.776,14.958-1.001,19.297c-0.225,4.339,0.208,13.21,0.208,13.21l1.713,4.575"/>
		<path fill="none" stroke="#6c584c" stroke-width="2" stroke-linecap="round" stroke-linejoin="round" stroke-miterlimit="10" d="
			M268.833,219.394c0,0,5.893-4.73,10.928-13.135c5.035-8.404,9.059-17.161,9.059-17.161l-4.023-6.45l5.097-5.016l-4.082-5.565"/>
		<path fill="none" stroke="#6c584c" stroke-width="2" stroke-linecap="round" stroke-linejoin="round" stroke-miterlimit="10" d="
			M264.339,211.433c-0.34-1.014-9.047-10.092-11.461-15.456c-2.414-5.364-3.32-15.51-3.32-15.51l5.198-6.793l-1.86-4.788"/>
		<path fill="none" stroke="#6c584c" stroke-width="2" stroke-linecap="round" stroke-linejoin="round" stroke-miterlimit="10" d="
			M281.925,202.525c0.727-1.306,6.627,1.065,10.918-1.936"/>
		<path fill="none" stroke="#6c584c" stroke-width="2" stroke-linecap="round" stroke-linejoin="round" stroke-miterlimit="10" d="
			M267.63,222.533c1.135-0.521,2.732-0.521,3.957-0.806c1.789-0.416,4.431-0.858,5.967-1.877"/>
		<path fill="none" stroke="#6c584c" stroke-width="2" stroke-linecap="round" stroke-linejoin="round" stroke-miterlimit="10" d="
			M282.65,218.509c0.567-0.513,1.234-0.934,1.878-1.341"/>
	</g>
</g>
</svg>
