<?xml version="1.0" encoding="utf-8"?>
<!-- Generator: Adobe Illustrator 17.0.0, SVG Export Plug-In . SVG Version: 6.00 Build 0)  -->
<!DOCTYPE svg PUBLIC "-//W3C//DTD SVG 1.1//EN" "http://www.w3.org/Graphics/SVG/1.1/DTD/svg11.dtd">
<svg version="1.1" xmlns="http://www.w3.org/2000/svg" xmlns:xlink="http://www.w3.org/1999/xlink" x="0px" y="0px" width="450px"
	 height="352px" viewBox="0 0 450 352" enable-background="new 0 0 450 352" xml:space="preserve" fill="#73a2bf">
<g id="Layer_2" opacity="0.4">
</g>
<g id="Layer_1">
	<g>
		<path d="M307.593,165.929c-0.508-0.214-1.096,0.026-1.309,0.537c-0.604,1.449-1.508,2.909-2.683,4.34
			c-0.351,0.427-0.289,1.057,0.138,1.407c0.187,0.153,0.411,0.228,0.634,0.228c0.289,0,0.576-0.125,0.773-0.365
			c1.3-1.582,2.303-3.21,2.983-4.838C308.343,166.728,308.103,166.142,307.593,165.929z"/>
		<path d="M306.595,145.822c-0.243-0.331-0.479-0.663-0.713-0.993c-1.452-2.043-2.953-4.156-5.661-5.252
			c-6.1-2.469-18.272-1.923-33.491,1.47l-5.649-5.383c-0.016-0.016-0.036-0.025-0.053-0.04c-0.022-0.018-0.044-0.034-0.068-0.05
			c-0.198-0.139-0.436-0.2-0.678-0.172c-0.02,0.002-0.039,0.004-0.059,0.007c-0.025,0.004-0.05,0.003-0.074,0.009l-8.731,2.187
			c-0.067,0.017-0.129,0.046-0.19,0.075c-0.014,0.007-0.028,0.009-0.042,0.016c-0.016,0.009-0.03,0.02-0.046,0.03
			c-0.019,0.012-0.035,0.027-0.054,0.04c-0.062,0.044-0.119,0.094-0.169,0.151c-0.009,0.01-0.022,0.014-0.031,0.025
			c-0.01,0.012-0.012,0.027-0.021,0.039c-0.009,0.012-0.022,0.018-0.031,0.03l-6.437,9.446c-11.478,4.001-21.944,8.73-30.24,13.501
			c-1.112-0.623-2.234-1.242-3.378-1.847c-19.998-10.576-46.997-18.411-57.57-13.222c-1.413,0.694-2.535,1.842-3.62,2.952
			c-0.379,0.388-0.754,0.771-1.133,1.123c-2.598,2.413-6.677,7.12-9.019,14.366c-0.005,0.011-0.006,0.022-0.011,0.033
			c-0.671,2.082-1.206,4.362-1.512,6.871c0,0.002,0.001,0.004,0,0.007c-0.969,5.119,2.714,12.683,10.129,20.777
			c7.982,8.714,19.618,17.342,32.763,24.294c17.464,9.234,34.034,14.146,46.151,14.146c6.283,0,11.368-1.324,14.759-4.047
			c0.003-0.003,0.008-0.003,0.011-0.006c0.383-0.283,9.41-7.055,12.009-17.768c0.095-0.39,0.191-0.773,0.288-1.154
			c0.368-1.455,0.72-2.869,0.878-4.332c1.831-0.561,5.049-1.566,7.931-2.565c31.37-10.872,49.788-23.376,49.345-33.482
			C312.24,166.4,313.129,154.719,306.595,145.822z M264.687,141.861l-3.516,0.757l-1.081-1.117l0.841-3.22L264.687,141.861z
			 M265.33,143.769l-1.529,5.408l-2.59-3.127l0.424-1.486L265.33,143.769z M256.92,152.3l1.383-4.535l1.433-0.359l2.874,3.468
			l-2.201,0.552L256.92,152.3z M258.662,142.903l1.056,1.09l-0.416,1.459l-1.473,0.369l-1.056-1.09l0.417-1.46L258.662,142.903z
			 M255.377,146.164l1.007,1.04l-1.207,3.959l-3.582-3.701L255.377,146.164z M258.161,140.967l-1.529,0.383l-2.798-2.289
			l5.163-1.293L258.161,140.967z M255.245,142.799l-0.41,1.436l-4.159,1.427l1.528-5.351L255.245,142.799z M256.971,154.349
			l6.496-1.628l-0.754,3.437l-6.335,2.01L256.971,154.349z M248.997,144.258l-0.771,2.698c-0.015,0.052-0.017,0.104-0.023,0.156
			c-0.003,0.024-0.009,0.046-0.01,0.071c-0.005,0.116,0.011,0.23,0.045,0.34c0.003,0.01,0,0.021,0.004,0.032
			c0.008,0.022,0.023,0.039,0.032,0.06c0.025,0.058,0.054,0.114,0.089,0.167c0.021,0.032,0.042,0.062,0.067,0.09
			c0.014,0.017,0.024,0.037,0.04,0.054l6.26,6.469c0.012,0.013,0.029,0.017,0.042,0.029c0.044,0.041,0.095,0.071,0.147,0.104
			l-0.451,2.906l-8.104-9.312L248.997,144.258z M252.086,206.994c-0.099,0.387-0.197,0.776-0.293,1.173
			c-2.424,9.991-11.167,16.565-11.255,16.631c-0.006,0.004-0.008,0.011-0.014,0.015c-0.007,0.005-0.015,0.006-0.021,0.011
			c-9.142,7.409-33.308,3.182-58.762-10.278c-27.29-14.435-43.674-33.884-41.855-42.994c0.002-0.013-0.002-0.024,0-0.037
			c0.002-0.013,0.01-0.024,0.012-0.037c0.265-2.17,0.71-4.159,1.268-5.989c18.979-7.438,50.45,6.339,50.767,6.48
			c0.133,0.059,0.271,0.086,0.405,0.086c0.384,0,0.749-0.222,0.915-0.594c0.224-0.505-0.004-1.096-0.508-1.32
			c-1.296-0.576-30.939-13.554-50.736-7.088c2.253-5.759,5.6-9.572,7.808-11.623c0.401-0.372,0.799-0.778,1.201-1.19
			c0.967-0.988,1.967-2.012,3.072-2.555c9.869-4.84,36.622,3.078,55.754,13.194c0.781,0.413,1.541,0.839,2.307,1.261
			c-8.326,5.011-14.161,10.004-16.154,14.183c-0.122,0.255-0.224,0.506-0.316,0.755c-15.335-7.271-29.834-10.593-40.317-11.133
			c-0.01-0.002-0.02,0-0.03-0.002c-4.185-0.214-7.728,0.015-10.428,0.611c-0.539,0.119-0.88,0.653-0.761,1.192
			s0.654,0.871,1.192,0.761c2.398-0.531,5.501-0.753,9.147-0.616c2.657,6.322,20.196,19.815,26.237,23.949
			c7.499,5.131,21.34,12.573,22.888,13.401c2.501,2.854,8.366,4.36,16.186,4.36c4.176,0,8.91-0.43,13.977-1.311
			c3.527,4.412,5.767,8.359,6.678,11.359c-0.346,0.634-1.029,1.574-1.783,1.78c-0.211,0.07-21.383,6.907-51.701-8.691
			c-31.499-16.205-42.558-37.676-42.818-39.601c-0.074-0.547-0.577-0.936-1.125-0.857c-0.548,0.074-0.932,0.578-0.857,1.125
			c0.32,2.366,11.395,24.396,43.887,41.112c16.536,8.507,30.28,10.547,39.657,10.546c8.276,0,13.151-1.589,13.54-1.722
			c1.968-0.533,3.066-2.925,3.186-3.196c0.092-0.21,0.109-0.445,0.048-0.667c-2.292-8.336-12.286-19.914-25.583-29.726
			c5.382-3.608,12.196-7.308,19.804-10.744c8.926,7.708,14.912,15.297,16.042,20.377
			C253.338,202.042,252.758,204.337,252.086,206.994z M200.771,201.422c-4.99-2.743-13.592-7.587-18.919-11.232
			c-8.664-5.929-21.965-16.998-25.071-22.172c10.156,0.754,23.884,4.096,38.421,11.047c-0.151,1.199-0.081,2.367-0.001,3.573
			c0.035,0.52,0.07,1.052,0.087,1.603C195.399,187.898,196.322,194.536,200.771,201.422z M215.163,190.954
			c5.535,4.035,10.193,8.143,13.957,12.056c-3.76,0.438-12.16,1.238-17.86,0.438c-3.595-0.504-4.553-3.608-4.778-4.686
			C208.314,196.344,211.306,193.687,215.163,190.954z M243.384,182.456c-1.439-1.429-2.994-2.88-4.662-4.343
			c4.578-2.002,9.411-3.902,14.376-5.623c11.091-3.844,21.872-6.586,31.113-8.024C278.687,168.422,265.221,176.767,243.384,182.456z
			 M262.18,198.697c-2.534,0.878-5.336,1.764-7.207,2.342c-0.031-0.675-0.113-1.366-0.272-2.086
			c-0.005-0.021-0.012-0.042-0.017-0.063c16.103-5.02,34.194-11.708,46.955-23.176c0.41-0.369,0.444-1.002,0.075-1.413
			c-0.371-0.411-1.003-0.442-1.413-0.075c-12.474,11.212-30.316,17.8-46.212,22.755c-1.411-3.692-4.558-8.132-9.093-12.883
			c27.523-7.368,41.322-18.553,43.232-20.188c5.845-0.696,10.924-0.798,14.853-0.229c0.54,0.084,1.055-0.299,1.133-0.846
			c0.079-0.547-0.3-1.054-0.846-1.133c-10.99-1.595-30.496,1.818-50.924,8.897c-5.513,1.91-10.829,4.015-15.807,6.229
			c-0.136,0.028-0.261,0.084-0.377,0.167c-15.108,6.759-27.03,14.52-31.645,20.93c-0.145,0.2-0.209,0.447-0.183,0.692
			c0.227,2.07,1.888,6.157,6.552,6.811c1.879,0.263,4.006,0.363,6.162,0.363c5.836,0,11.861-0.735,13.669-0.974
			c0.515,0.567,1.005,1.128,1.48,1.684c-15.286,2.484-24.71,0.481-27.288-2.694c-0.002-0.002-0.005-0.003-0.007-0.006
			c-0.002-0.002-0.002-0.005-0.004-0.007c-1.451-1.728-2.622-3.468-3.585-5.177c4.368-8.271,19.506-16.581,19.661-16.665
			c0.485-0.265,0.665-0.872,0.4-1.356c-0.263-0.486-0.872-0.664-1.355-0.401c-0.627,0.341-14.504,7.956-19.801,16.32
			c-2.375-5.033-2.945-9.583-3.028-12.335c-0.018-0.576-0.055-1.132-0.091-1.675c-0.127-1.909-0.237-3.557,0.604-5.32
			c1.975-4.142,8.083-9.18,16.814-14.235c0.053-0.029,0.107-0.051,0.154-0.089c8.156-4.706,18.58-9.421,30.074-13.44l9.46,10.871
			c0.192,0.223,0.47,0.344,0.754,0.344c0.101,0,0.203-0.016,0.303-0.047l8.508-2.699c0.341-0.108,0.598-0.39,0.674-0.739
			l2.431-11.087l0.732-2.565c0.059-0.207,0.049-0.424-0.023-0.619c14.397-3.158,26.203-3.708,31.788-1.448
			c2.166,0.877,3.378,2.582,4.781,4.558c0.239,0.338,0.481,0.678,0.731,1.018c2.909,3.962,4.23,8.62,4.815,12.44
			c-1.855-1.128-5.118-2.444-10.501-2.761c-9.479-0.557-44.767,3.36-74.625,20.882c-0.477,0.279-0.636,0.893-0.356,1.368
			c0.187,0.317,0.521,0.494,0.863,0.494c0.172,0,0.346-0.044,0.505-0.138c29.461-17.289,64.197-21.147,73.496-20.61
			c7.35,0.433,10.245,2.811,10.937,3.5c0.226,2.814,0.071,4.726,0.067,4.772c-0.002,0.026,0.009,0.048,0.008,0.073
			c0,0.025-0.012,0.047-0.01,0.073C310.709,176.007,291.866,188.409,262.18,198.697z"/>
		<path d="M264.478,122.271l-2.485,7.703c-0.169,0.525,0.119,1.089,0.646,1.259c0.102,0.032,0.205,0.048,0.307,0.048
			c0.423,0,0.815-0.27,0.952-0.693l2.485-7.703c0.169-0.525-0.119-1.089-0.646-1.259
			C265.212,121.461,264.647,121.746,264.478,122.271z"/>
		<path d="M246.714,135.133c0.251,0,0.502-0.094,0.695-0.281c0.397-0.385,0.407-1.018,0.023-1.414l-5.328-5.502
			c-0.385-0.398-1.02-0.405-1.414-0.023c-0.397,0.385-0.407,1.018-0.023,1.414l5.328,5.502
			C246.191,135.031,246.453,135.133,246.714,135.133z"/>
		<path d="M268.409,136.893c0.187,0.318,0.521,0.495,0.864,0.495c0.172,0,0.346-0.044,0.504-0.137l3.851-2.255
			c0.477-0.279,0.637-0.892,0.358-1.368c-0.28-0.478-0.894-0.638-1.368-0.358l-3.851,2.255
			C268.291,135.804,268.131,136.416,268.409,136.893z"/>
		<path d="M239.563,139.5c-0.532-0.152-1.085,0.154-1.238,0.684c-0.153,0.53,0.153,1.085,0.684,1.238l4.764,1.375
			c0.093,0.026,0.186,0.039,0.277,0.039c0.435,0,0.834-0.285,0.961-0.723c0.153-0.53-0.153-1.085-0.684-1.238L239.563,139.5z"/>
		<path d="M253.564,125.441c-0.546,0.086-0.918,0.598-0.833,1.144l0.605,3.852c0.078,0.493,0.503,0.845,0.987,0.845
			c0.052,0,0.104-0.004,0.156-0.012c0.546-0.086,0.918-0.598,0.833-1.144l-0.605-3.852
			C254.622,125.729,254.106,125.359,253.564,125.441z"/>
	</g>
</g>
</svg>
