<?xml version="1.0" encoding="utf-8"?>
<!-- Generator: Adobe Illustrator 17.0.0, SVG Export Plug-In . SVG Version: 6.00 Build 0)  -->
<!DOCTYPE svg PUBLIC "-//W3C//DTD SVG 1.1//EN" "http://www.w3.org/Graphics/SVG/1.1/DTD/svg11.dtd">
<svg version="1.1" xmlns="http://www.w3.org/2000/svg" xmlns:xlink="http://www.w3.org/1999/xlink" x="0px" y="0px" width="450px"
	 height="352px" viewBox="0 0 450 352" enable-background="new 0 0 450 352" xml:space="preserve" fill="#5d7ca6" >
<g id="Layer_2" opacity="0.4">
</g>
<g id="Layer_1">
	<g>
		<path d="M220.84,193.031c0.013,0.003,0.025,0,0.038,0.002c0.075,0.018,0.151,0.034,0.229,0.034c0.025,0,0.051-0.012,0.076-0.014
			c0.046-0.004,0.088-0.014,0.132-0.024c0.046-0.01,0.093-0.008,0.139-0.025c0.029-0.011,0.049-0.034,0.077-0.047
			c0.052-0.024,0.097-0.055,0.144-0.088c0.059-0.042,0.113-0.084,0.161-0.136c0.038-0.041,0.068-0.086,0.099-0.134
			c0.04-0.061,0.072-0.123,0.097-0.191c0.01-0.027,0.031-0.047,0.039-0.075c0.009-0.031,0.001-0.062,0.007-0.093
			c0.012-0.067,0.016-0.133,0.014-0.203c-0.002-0.066-0.009-0.129-0.024-0.193c-0.007-0.03-0.001-0.06-0.011-0.089
			c-12.249-37.439-40.155-48.556-40.436-48.664c-0.513-0.195-1.093,0.058-1.292,0.574c-0.198,0.515,0.058,1.094,0.573,1.292
			c0.257,0.1,24.512,9.805,37.226,41.809c-3.939-3.327-11.411-6.703-24.805-4.281c-0.544,0.099-0.904,0.619-0.807,1.162
			c0.099,0.543,0.623,0.906,1.162,0.807c16.006-2.897,22.828,2.855,25.302,6.061c-26.216-5.729-38.481,17.033-38.605,17.27
			c-0.256,0.489-0.067,1.093,0.422,1.35c0.148,0.077,0.307,0.114,0.463,0.114c0.36,0,0.708-0.195,0.887-0.536
			C182.641,207.773,194.553,185.752,220.84,193.031z"/>
		<path d="M221.421,196.051c0.524-0.174,0.809-0.739,0.635-1.264c-0.173-0.524-0.74-0.808-1.264-0.635
			c-18.809,6.233-18.286,24.073-18.278,24.253c0.022,0.537,0.465,0.958,0.998,0.958c0.015,0,0.028,0,0.043-0.001
			c0.552-0.022,0.98-0.489,0.957-1.041C204.505,218.157,204.027,201.815,221.421,196.051z"/>
		<path d="M237.887,180.93c0.372,0,0.729-0.208,0.902-0.565c0.037-0.077,3.865-7.766,14.755-11.367
			c0.524-0.173,0.81-0.739,0.636-1.263c-0.173-0.524-0.741-0.814-1.263-0.636c-11.74,3.882-15.766,12.055-15.932,12.4
			c-0.237,0.497-0.027,1.093,0.469,1.332C237.594,180.897,237.741,180.93,237.887,180.93z"/>
		<path d="M254.13,192.504c0.241-0.496,0.034-1.095-0.462-1.336c-0.183-0.088-18.478-8.781-29.562,3.256
			c-0.277,0.301-0.343,0.739-0.167,1.107c0.175,0.369,0.545,0.588,0.965,0.568c0.067-0.005,7.521-0.31,14.175,12.608
			c0.177,0.345,0.527,0.542,0.89,0.542c0.154,0,0.311-0.035,0.457-0.111c0.491-0.253,0.684-0.855,0.431-1.347
			c-5.09-9.88-10.78-12.646-13.844-13.408c10.168-8.817,25.62-1.494,25.781-1.417C253.291,193.208,253.889,193.001,254.13,192.504z"
			/>
		<path d="M221.151,229.478c0.102,0,0.206-0.016,0.308-0.049c0.525-0.17,0.813-0.733,0.644-1.259
			c-3.471-10.724-0.014-25.608,0.021-25.758c0.128-0.537-0.205-1.076-0.742-1.203c-0.538-0.127-1.077,0.205-1.203,0.742
			c-0.15,0.63-3.624,15.572,0.021,26.834C220.337,229.209,220.729,229.478,221.151,229.478z"/>
		<path d="M198.065,172.582c0.322,0,0.64-0.156,0.832-0.444c0.307-0.459,0.184-1.08-0.275-1.387
			c-0.417-0.279-10.354-6.857-22.313-8.756c-0.554-0.087-1.058,0.285-1.145,0.83c-0.087,0.546,0.285,1.059,0.83,1.145
			c11.515,1.828,21.418,8.378,21.517,8.443C197.682,172.527,197.874,172.582,198.065,172.582z"/>
		<path d="M267.985,126.813c-0.35-0.643-1.404-0.643-1.754,0l-2.526,4.619l-4.621,2.527c-0.321,0.175-0.521,0.512-0.521,0.877
			s0.199,0.702,0.521,0.877l4.62,2.527l2.527,4.62c0.175,0.321,0.512,0.521,0.877,0.521s0.702-0.199,0.877-0.521l2.527-4.621
			l4.619-2.526c0.321-0.175,0.521-0.512,0.521-0.877s-0.199-0.702-0.521-0.877l-4.619-2.527L267.985,126.813z M269.296,136.626
			c-0.168,0.092-0.306,0.229-0.397,0.397l-1.79,3.272l-1.79-3.272c-0.092-0.168-0.229-0.306-0.397-0.397l-3.272-1.79l3.272-1.79
			c0.168-0.092,0.306-0.229,0.397-0.397l1.79-3.272l1.79,3.272c0.092,0.168,0.229,0.306,0.397,0.397l3.272,1.79L269.296,136.626z"/>
		<path d="M167.629,188.86c0.365,0,0.702-0.199,0.877-0.52l1.568-2.866l2.865-1.568c0.321-0.175,0.521-0.512,0.521-0.877
			s-0.199-0.702-0.521-0.877l-2.865-1.568l-1.568-2.866c-0.351-0.643-1.404-0.642-1.755,0.001l-1.566,2.866l-2.865,1.567
			c-0.321,0.175-0.521,0.512-0.521,0.877s0.199,0.702,0.521,0.877l2.865,1.567l1.566,2.866
			C166.927,188.661,167.263,188.86,167.629,188.86z M166.401,183.86l-1.519-0.831l1.519-0.831c0.168-0.092,0.307-0.229,0.398-0.397
			l0.83-1.519l0.831,1.52c0.092,0.167,0.229,0.305,0.397,0.396l1.518,0.831l-1.518,0.831c-0.168,0.092-0.306,0.229-0.397,0.396
			l-0.831,1.52l-0.83-1.519C166.708,184.09,166.569,183.952,166.401,183.86z"/>
		<path d="M244.682,215.62l-2.368,4.329l-4.329,2.368c-0.321,0.175-0.521,0.512-0.521,0.877s0.199,0.702,0.521,0.877l4.329,2.368
			l2.367,4.33c0.176,0.321,0.513,0.521,0.878,0.521s0.702-0.199,0.877-0.521l2.369-4.33l4.328-2.368
			c0.321-0.175,0.521-0.512,0.521-0.877s-0.199-0.702-0.521-0.877l-4.329-2.368l-2.368-4.329
			C246.086,214.978,245.031,214.978,244.682,215.62z M247.19,221.165c0.092,0.168,0.229,0.306,0.397,0.397l2.981,1.632l-2.981,1.631
			c-0.168,0.092-0.306,0.229-0.397,0.397l-1.632,2.982l-1.63-2.982c-0.092-0.168-0.23-0.306-0.398-0.397l-2.982-1.631l2.982-1.632
			c0.168-0.092,0.306-0.229,0.397-0.397l1.631-2.981L247.19,221.165z"/>
		<path d="M167.534,138.966l3.307,1.81l1.81,3.308c0.175,0.321,0.512,0.521,0.877,0.521s0.702-0.199,0.877-0.521l1.81-3.308
			l3.308-1.81c0.321-0.175,0.521-0.512,0.521-0.877s-0.199-0.702-0.521-0.878l-3.309-1.809l-1.809-3.307
			c-0.35-0.643-1.404-0.643-1.754,0l-1.81,3.307l-3.307,1.81c-0.321,0.175-0.521,0.512-0.521,0.877S167.213,138.791,167.534,138.966
			z M172.058,137.017c0.168-0.092,0.306-0.229,0.397-0.397l1.072-1.96l1.072,1.96c0.092,0.168,0.229,0.307,0.397,0.397l1.961,1.072
			l-1.961,1.073c-0.168,0.092-0.306,0.229-0.397,0.397l-1.072,1.96l-1.072-1.96c-0.092-0.168-0.229-0.306-0.397-0.397l-1.96-1.073
			L172.058,137.017z"/>
		<path d="M271.563,185.468c-0.16-0.362-0.519-0.597-0.915-0.597s-0.755,0.234-0.915,0.597l-2.012,4.564l-4.959-0.539
			c-0.385-0.044-0.776,0.151-0.975,0.494c-0.198,0.344-0.175,0.771,0.06,1.091l2.947,4.023l-2.947,4.024
			c-0.234,0.319-0.258,0.747-0.06,1.091c0.198,0.343,0.579,0.529,0.975,0.494l4.959-0.539l2.012,4.564
			c0.16,0.362,0.519,0.597,0.915,0.597s0.755-0.234,0.915-0.597l2.013-4.564l4.958,0.539c0.397,0.046,0.776-0.15,0.975-0.494
			c0.198-0.343,0.175-0.771-0.06-1.091l-2.946-4.024l2.946-4.023c0.234-0.319,0.258-0.747,0.06-1.091s-0.588-0.538-0.975-0.494
			l-4.958,0.539L271.563,185.468z M274.457,195.692l2.039,2.785l-3.432-0.373c-0.447-0.049-0.848,0.192-1.023,0.591l-1.393,3.158
			l-1.392-3.158c-0.161-0.365-0.521-0.597-0.915-0.597c-0.035,0-0.071,0.002-0.108,0.006l-3.432,0.373l2.039-2.785
			c0.258-0.352,0.258-0.83,0-1.182l-2.039-2.784l3.432,0.373c0.456,0.047,0.848-0.192,1.023-0.591l1.392-3.158l1.393,3.158
			c0.175,0.397,0.575,0.641,1.023,0.591l3.432-0.373l-2.039,2.784C274.199,194.862,274.199,195.341,274.457,195.692z"/>
		<path d="M191.846,229.334c-0.025-0.396-0.282-0.738-0.654-0.875l-6.198-2.267l0.289-6.594c0.018-0.396-0.201-0.765-0.556-0.94
			s-0.781-0.125-1.085,0.13l-5.062,4.234l-5.566-3.547c-0.334-0.213-0.762-0.209-1.092,0.012c-0.33,0.22-0.499,0.614-0.431,1.004
			l1.136,6.501l-5.854,3.047c-0.352,0.183-0.562,0.556-0.536,0.951s0.282,0.738,0.654,0.875l6.198,2.266l-0.289,6.594
			c-0.018,0.396,0.201,0.765,0.556,0.94c0.141,0.069,0.292,0.104,0.443,0.104c0.229,0,0.458-0.079,0.642-0.233l5.062-4.234
			l5.566,3.548c0.334,0.213,0.762,0.209,1.092-0.012c0.33-0.22,0.499-0.613,0.431-1.004l-1.136-6.502l5.854-3.046
			C191.661,230.103,191.871,229.73,191.846,229.334z M183.883,231.896c-0.387,0.201-0.599,0.629-0.523,1.059l0.872,4.988
			l-4.271-2.722c-0.365-0.232-0.843-0.205-1.179,0.077l-3.883,3.248l0.222-5.059c0.02-0.436-0.246-0.833-0.655-0.983l-4.756-1.738
			l4.491-2.338c0.387-0.201,0.599-0.63,0.523-1.059l-0.872-4.987l4.271,2.722c0.365,0.232,0.844,0.205,1.179-0.077l3.883-3.249
			l-0.222,5.059c-0.02,0.436,0.246,0.833,0.655,0.983l4.756,1.739L183.883,231.896z"/>
		<path d="M164.322,165.853c2.934,0,5.32-2.387,5.32-5.319c0-2.934-2.387-5.32-5.32-5.32c-2.933,0-5.319,2.387-5.319,5.32
			C159.003,163.466,161.39,165.853,164.322,165.853z M164.322,157.213c1.831,0,3.32,1.489,3.32,3.32c0,1.83-1.489,3.319-3.32,3.319
			c-1.83,0-3.319-1.489-3.319-3.319C161.003,158.702,162.492,157.213,164.322,157.213z"/>
		<path d="M194.458,110.231c-2.542,0-4.61,2.068-4.61,4.61s2.068,4.609,4.61,4.609c2.541,0,4.608-2.067,4.608-4.609
			S196.999,110.231,194.458,110.231z M194.458,117.451c-1.439,0-2.61-1.171-2.61-2.609c0-1.439,1.171-2.61,2.61-2.61
			c1.438,0,2.608,1.171,2.608,2.61C197.066,116.28,195.896,117.451,194.458,117.451z"/>
		<path d="M239.033,124.034c2.228,0,4.04-1.812,4.04-4.04s-1.812-4.04-4.04-4.04s-4.04,1.812-4.04,4.04
			S236.806,124.034,239.033,124.034z M239.033,117.954c1.125,0,2.04,0.915,2.04,2.04s-0.915,2.04-2.04,2.04s-2.04-0.915-2.04-2.04
			S237.908,117.954,239.033,117.954z"/>
		<path d="M264.179,161.982c-1.392,0-2.524,1.132-2.524,2.523s1.133,2.523,2.524,2.523s2.523-1.132,2.523-2.523
			S265.57,161.982,264.179,161.982z M264.179,165.029c-0.289,0-0.524-0.234-0.524-0.523s0.235-0.523,0.524-0.523
			s0.523,0.234,0.523,0.523S264.468,165.029,264.179,165.029z"/>
		<path d="M203.509,231.001c1.392,0,2.524-1.132,2.524-2.523s-1.133-2.523-2.524-2.523s-2.523,1.132-2.523,2.523
			S202.117,231.001,203.509,231.001z M203.509,227.954c0.289,0,0.524,0.234,0.524,0.523s-0.235,0.523-0.524,0.523
			s-0.523-0.234-0.523-0.523S203.22,227.954,203.509,227.954z"/>
		<path d="M162.799,202.072c-1.392,0-2.524,1.132-2.524,2.523s1.133,2.523,2.524,2.523s2.523-1.132,2.523-2.523
			S164.19,202.072,162.799,202.072z M162.799,205.119c-0.289,0-0.524-0.234-0.524-0.523s0.235-0.523,0.524-0.523
			s0.523,0.234,0.523,0.523S163.088,205.119,162.799,205.119z"/>
		<path d="M286.957,159.083c2.228,0,4.04-1.812,4.04-4.04s-1.812-4.04-4.04-4.04s-4.04,1.812-4.04,4.04
			S284.729,159.083,286.957,159.083z M286.957,153.003c1.125,0,2.04,0.915,2.04,2.04s-0.915,2.04-2.04,2.04s-2.04-0.915-2.04-2.04
			S285.832,153.003,286.957,153.003z"/>
		<path d="M249.315,208.01c1.883,0,3.414-1.531,3.414-3.414s-1.531-3.414-3.414-3.414s-3.415,1.531-3.415,3.414
			S247.433,208.01,249.315,208.01z M249.315,203.182c0.779,0,1.414,0.635,1.414,1.414s-0.635,1.414-1.414,1.414
			c-0.78,0-1.415-0.635-1.415-1.414S248.535,203.182,249.315,203.182z"/>
		<path d="M222.599,139.315c-0.118-0.362-0.431-0.626-0.808-0.681l-6.185-0.898l-2.765-5.604c-0.168-0.342-0.516-0.558-0.896-0.558
			s-0.729,0.216-0.896,0.558l-2.766,5.604l-6.185,0.898c-0.377,0.055-0.689,0.318-0.808,0.681c-0.117,0.361-0.02,0.759,0.253,1.024
			l4.476,4.362l-1.057,6.159c-0.064,0.375,0.09,0.754,0.397,0.978c0.174,0.127,0.381,0.191,0.588,0.191
			c0.159,0,0.319-0.038,0.465-0.115l5.532-2.907l5.53,2.907c0.338,0.178,0.747,0.149,1.054-0.076
			c0.308-0.224,0.462-0.603,0.397-0.978l-1.057-6.159l4.476-4.362C222.618,140.074,222.716,139.677,222.599,139.315z
			 M216.098,143.638c-0.235,0.229-0.343,0.561-0.287,0.885l0.803,4.68l-4.202-2.209c-0.293-0.154-0.64-0.154-0.931,0l-4.204,2.209
			l0.803-4.68c0.056-0.324-0.052-0.655-0.287-0.885l-3.4-3.315l4.699-0.683c0.326-0.047,0.607-0.252,0.753-0.547l2.102-4.258
			l2.101,4.258c0.146,0.295,0.427,0.5,0.753,0.547l4.699,0.683L216.098,143.638z"/>
		<path d="M255.973,143.55c-0.263-0.485-0.87-0.665-1.355-0.402c-16.917,9.173-28.594,25.229-30.521,41.594
			c-1.793-3.616-2.827-7.688-3.61-11.342c-0.115-0.541-0.646-0.887-1.187-0.769c-0.54,0.115-0.885,0.646-0.769,1.187
			c1.027,4.798,2.482,10.305,5.481,14.773c0.188,0.281,0.503,0.442,0.83,0.442c0.091,0,0.183-0.013,0.273-0.038
			c0.416-0.118,0.71-0.491,0.726-0.924c0.632-16.771,12.301-33.715,29.729-43.166C256.056,144.643,256.236,144.035,255.973,143.55z"
			/>
		<path d="M217.336,157.085c-0.551,0.032-0.972,0.506-0.938,1.058c0.126,2.13,0.346,4.408,0.67,6.965
			c0.064,0.505,0.495,0.874,0.991,0.874c0.042,0,0.084-0.003,0.127-0.008c0.548-0.069,0.936-0.57,0.866-1.118
			c-0.319-2.512-0.534-4.747-0.658-6.832C218.361,157.473,217.91,157.056,217.336,157.085z"/>
		<path d="M188.059,184.974l-4.41,2.162c-0.496,0.243-0.7,0.842-0.457,1.338c0.173,0.354,0.528,0.56,0.898,0.56
			c0.147,0,0.298-0.032,0.439-0.103l4.41-2.162c0.496-0.243,0.7-0.842,0.457-1.338C189.155,184.935,188.556,184.727,188.059,184.974
			z"/>
		<path d="M223.393,238.003c0.197,0.251,0.49,0.382,0.787,0.382c0.216,0,0.434-0.069,0.617-0.214c0.434-0.341,0.51-0.97,0.168-1.404
			c-0.595-0.757-1.285-2.499-1.501-3.106c-0.186-0.521-0.761-0.79-1.276-0.607c-0.521,0.185-0.793,0.756-0.608,1.276
			C221.669,234.584,222.488,236.853,223.393,238.003z"/>
		<path d="M172.673,194.582c-0.287,0.472-0.137,1.087,0.335,1.374c0.162,0.099,0.342,0.146,0.519,0.146
			c0.338,0,0.667-0.171,0.855-0.48c1.06-1.742,2.334-2.727,2.37-2.754c0.441-0.332,0.53-0.957,0.2-1.399
			c-0.33-0.44-0.958-0.533-1.4-0.201C175.487,191.315,173.954,192.477,172.673,194.582z"/>
		<path d="M231.382,148.846c0.157,0.091,0.328,0.134,0.497,0.134c0.347,0,0.683-0.181,0.868-0.502
			c0.017-0.028,1.682-2.892,3.722-3.994c0.485-0.263,0.667-0.869,0.404-1.355c-0.262-0.485-0.867-0.669-1.355-0.404
			c-2.545,1.376-4.427,4.621-4.505,4.759C230.738,147.961,230.903,148.571,231.382,148.846z"/>
		<path d="M271.45,225.981c-0.49,0.255-0.68,0.859-0.425,1.349c0.542,1.04,0.971,2.088,1.273,3.114
			c0.128,0.436,0.526,0.717,0.959,0.717c0.093,0,0.188-0.013,0.283-0.041c0.529-0.156,0.832-0.712,0.676-1.242
			c-0.339-1.149-0.816-2.317-1.418-3.472C272.544,225.916,271.94,225.725,271.45,225.981z"/>
		<path d="M263.329,214.592c-0.406-0.37-1.04-0.345-1.413,0.063c-0.372,0.407-0.344,1.04,0.063,1.413
			c1.279,1.17,2.532,2.453,3.828,3.923c0.198,0.224,0.474,0.338,0.75,0.338c0.235,0,0.472-0.082,0.662-0.25
			c0.414-0.365,0.453-0.998,0.088-1.412C265.964,217.145,264.662,215.812,263.329,214.592z"/>
		<path d="M271.163,175.458c-0.043,0.551,0.368,1.032,0.919,1.075c1.369,0.106,2.546,0.412,3.495,0.906
			c0.147,0.077,0.306,0.113,0.461,0.113c0.361,0,0.71-0.196,0.888-0.538c0.255-0.49,0.065-1.094-0.425-1.349
			c-1.206-0.629-2.601-0.997-4.263-1.127C271.694,174.504,271.206,174.908,271.163,175.458z"/>
		<path d="M261.687,176.804c0.117,0.451,0.522,0.749,0.967,0.749c0.083,0,0.168-0.01,0.252-0.032
			c1.065-0.276,2.207-0.51,3.394-0.693c0.545-0.085,0.919-0.596,0.835-1.142c-0.084-0.544-0.595-0.912-1.142-0.835
			c-1.252,0.194-2.46,0.44-3.589,0.734C261.868,175.724,261.548,176.27,261.687,176.804z"/>
		<path d="M200.498,122.659c-0.207-0.514-0.789-0.759-1.302-0.552c-0.512,0.207-0.759,0.79-0.552,1.302l2.671,6.598
			c0.157,0.39,0.531,0.625,0.927,0.625c0.125,0,0.252-0.023,0.375-0.073c0.512-0.207,0.759-0.79,0.552-1.302L200.498,122.659z"/>
		<path d="M233.574,133.507c0.119,0.047,0.241,0.068,0.362,0.068c0.4,0,0.778-0.242,0.932-0.638l2.057-5.283
			c0.2-0.515-0.055-1.094-0.569-1.294c-0.514-0.203-1.094,0.054-1.294,0.569l-2.057,5.283
			C232.805,132.728,233.06,133.307,233.574,133.507z"/>
		<path d="M226.609,190.009c0.328,0,0.649-0.161,0.841-0.457c0.018-0.027,1.812-2.759,4.721-3.644
			c0.528-0.161,0.826-0.72,0.666-1.248c-0.161-0.527-0.718-0.824-1.248-0.666c-3.601,1.096-5.729,4.334-5.818,4.472
			c-0.3,0.463-0.167,1.082,0.297,1.383C226.235,189.957,226.423,190.009,226.609,190.009z"/>
	</g>
</g>
</svg>
